<svg xmlns="http://www.w3.org/2000/svg" xmlns:xlink="http://www.w3.org/1999/xlink" width="530.62" height="216.05" viewBox="0 0 530.62 216.05"><defs><linearGradient id="linear-gradient" x1="-67.42" y1="150.45" x2="106.94" y2="88.33" gradientUnits="userSpaceOnUse"><stop offset="0" stop-color="#264883"/><stop offset="1" stop-color="#009ee9"/></linearGradient><linearGradient id="linear-gradient-2" x1="-63.21" y1="162.24" x2="111.14" y2="100.12" xlink:href="#linear-gradient"/></defs><g id="Layer_2" data-name="Layer 2"><g id="Layer_1-2" data-name="Layer 1"><path d="M168.07,3.89c0-3-.49-3.9-3.76-3.89C129.54.15,94.77.09,60,.09,43.46,3,29.19,10,17.82,22.6A79,79,0,0,0,0,56.09v117c5.42,2.53,11.17,1.16,16.76,1.24,13.58.22,13.49.07,13.59-13.25.23-28.15-.49-56.31.56-84.46C31.8,52.92,47.26,35.81,70.77,33c5.22-.62,10.3.13,15.43.07,14.66-.18,29.34.76,44-.64,4.61-.45,6.48,1.61,6.44,6,0,1.16.06,2.33,0,3.5-1.21,20.81-.3,41.64-.52,62.46a40.42,40.42,0,0,0,.72,7.44c.4,2.31,1.73,4.09,4.3,4.13a5,5,0,0,0,5.06-3.38,14.7,14.7,0,0,0,.87-4.87c.05-25.49.1-51,0-76.49,0-7.36-1.94-9.1-9.33-9.12-20.16,0-40.33-.09-60.49,0-11,.06-21.55,2.4-30.88,8.54C28.81,42.18,20.23,58.79,20,79.53c-.3,26.32-.13,52.66,0,79,0,4.08-1.33,5.52-5.5,5.55s-5.38-1.68-5.36-5.64c.12-30,.07-60,.13-90a50.52,50.52,0,0,1,3.19-17.12C21.85,25.37,44,9.84,72.8,9.49c26.33-.32,52.66,0,79-.13,4.57,0,6.15,1.67,6.08,6.19-.2,13.49-.08,27-.08,40.49q0,55,0,110c0,2.88,0,5.76,2.93,7.49s5.08.25,7.27-1.43Q168,88,168.07,3.89Z" fill="url(#linear-gradient)"/><path d="M118,105.83c-10-.1-20,0-30,0v0c-10.16,0-20.32-.1-30.49.05-3.79.06-5.52-1.23-5.39-5.18.19-5.66-.11-11.34.14-17C52.89,69.28,64.18,57.06,78,55.39c10.8-1.3,21.6-.23,32.4-.22,3.58,0,4.43,2.06,4.44,5.19s-1.4,4.48-4.55,4.42c-5.66-.09-11.33,0-17,0a31.49,31.49,0,0,0-19.39,7,19.62,19.62,0,0,0-7.76,13.49c-.43,3.39.62,6.1,4.24,6.8,3.44.67,5.32-1.32,5.91-4.57,1-5.72,4.73-8.92,9.93-10.85a23.87,23.87,0,0,1,8.31-1.44c7.67,0,15.33.05,23-.14,5.94-.15,7.65-2,7.72-8,.07-5,.08-10,0-15-.09-5.91-1.48-7.29-7.5-7.32q-17.74-.07-35.49,0a40.5,40.5,0,0,0-40.49,40.8q0,10.24,0,20.5c0,9.15,1.06,10.16,10.46,10.16,18.82,0,37.65.15,56.48-.09,4.89-.06,6.5,1.64,6.19,6.37-.34,5.14,0,10.33-.21,15.49a26.63,26.63,0,0,1-26.13,25.81c-10.32.28-20.66,0-31,.14-3.73,0-5.5-1.27-5.44-5.23s2.39-4.5,5.59-4.47c8.67.09,17.34.25,26,0,10.87-.34,19.38-8.19,20-18,.22-3.14-.7-5.78-4-6.62-3.53-.9-5.07,1.37-6.1,4.36-3.11,9-4.44,9.86-14.16,9.87-10.16,0-20.33-.08-30.49.07-5.58.09-7.15,1.78-7.22,7.24s0,11,0,16.49c0,4.61,2.21,6.7,6.73,6.69,13.5,0,27,.35,40.48-.15,20.84-.78,36.14-17,36.29-37.69,0-7.83.07-15.67,0-23.5C125.16,107.48,123.59,105.88,118,105.83Z" fill="url(#linear-gradient-2)"/><text transform="translate(213.09 92.23)" font-size="89.6" fill="#232323" font-family="Emirates-Medium, Emirates" font-weight="500">AUTO</text><text transform="translate(213.09 173.4)" font-size="89.6" fill="#232323" font-family="Emirates-Medium, Emirates" font-weight="500">SERVICE</text></g></g></svg>